<svg width="40" height="40" viewBox="0 0 40 40" fill="none" xmlns="http://www.w3.org/2000/svg">
<path d="M26 16.0714V16.0714C27.6163 17.5627 27.6163 20.1159 26 21.6072V21.6072" stroke="#FF7F7F" stroke-width="1.5" stroke-linecap="round"/>
<path d="M28 12.75V12.75C31.3279 16.1275 31.3279 21.5511 28 24.9286V24.9286" stroke="#FF7F7F" stroke-width="1.5" stroke-linecap="round"/>
<path d="M30 9.42856V9.42856C35.4219 14.531 35.4219 23.1476 30 28.25V28.25" stroke="#FF7F7F" stroke-width="1.5" stroke-linecap="round"/>
<path d="M11.1818 14.7895L18.6581 8.02416C19.9439 6.86062 22 7.77301 22 9.50712V31.3239C22 33.0837 19.8911 33.9856 18.6186 32.7701L11.1818 25.6667H7C5.89543 25.6667 5 24.7712 5 23.6667V16.7895C5 15.6849 5.89543 14.7895 7 14.7895H11.1818Z" fill="#FF8080"/>
</svg>
