<svg width="14" height="14" viewBox="0 0 14 14" fill="none" xmlns="http://www.w3.org/2000/svg">
<path d="M6.09591 9.04159C6.33897 9.28464 6.64522 9.39897 7.01466 9.38459C7.38411 9.3702 7.65147 9.23642 7.81675 8.98325L11.0834 4.08325L6.18341 7.34992C5.93064 7.52492 5.79219 7.78975 5.76808 8.14442C5.74397 8.49909 5.85325 8.79814 6.09591 9.04159ZM2.97508 11.6666C2.76119 11.6666 2.56441 11.6203 2.38475 11.5278C2.20508 11.4352 2.06158 11.2968 1.95425 11.1124C1.70147 10.6555 1.50703 10.1816 1.37091 9.69084C1.2348 9.20006 1.16675 8.69197 1.16675 8.16659C1.16675 7.35964 1.31997 6.60131 1.62641 5.89159C1.93286 5.18186 2.34839 4.5645 2.873 4.0395C3.39761 3.5145 4.01497 3.09897 4.72508 2.79292C5.43519 2.48686 6.19353 2.33364 7.00008 2.33325C7.7973 2.33325 8.54591 2.48395 9.24591 2.78534C9.94591 3.08672 10.5584 3.49759 11.0834 4.01792C11.6084 4.53825 12.0265 5.14589 12.3376 5.84084C12.6487 6.53578 12.8091 7.28186 12.8188 8.07909C12.8286 8.61381 12.7679 9.13647 12.6368 9.64709C12.5058 10.1577 12.3039 10.6461 12.0313 11.1124C11.9244 11.2971 11.7811 11.4358 11.6014 11.5283C11.4217 11.6209 11.2246 11.667 11.0099 11.6666H2.97508Z" fill="#0FBD8C"/>
</svg>
