<svg width="16" height="16" viewBox="0 0 16 16" fill="none" xmlns="http://www.w3.org/2000/svg">
<g clip-path="url(#clip0_2814_7)">
<path fill-rule="evenodd" clip-rule="evenodd" d="M10.1787 1.23151C10.6733 1.10652 11.197 1.17526 11.6426 1.42365C12.0882 1.67204 12.422 2.08131 12.5757 2.56772L12.6077 2.68067L14.5674 10.4369C14.6924 10.9315 14.6236 11.4552 14.3753 11.9008C14.1269 12.3464 13.7176 12.6802 13.2312 12.8339L13.1182 12.8659L5.36196 14.8256C4.86737 14.9506 4.34371 14.8818 3.89812 14.6335C3.45254 14.3851 3.11871 13.9758 2.96495 13.4894L2.93298 13.3764L0.973314 5.62016C0.848323 5.12557 0.917055 4.60191 1.16545 4.15632C1.41384 3.71074 1.82311 3.37691 2.30952 3.22315L2.42247 3.19118L10.1787 1.23151ZM10.3592 8.74969C10.1182 8.8106 9.9085 8.95909 9.77103 9.1662C9.63356 9.37332 9.57816 9.62422 9.61564 9.86996L9.63626 9.97065C9.69929 10.2196 9.85569 10.4348 10.073 10.5716C10.2904 10.7083 10.552 10.7563 10.8038 10.7054C11.0555 10.6545 11.278 10.5088 11.4252 10.2983C11.5723 10.0879 11.6329 9.82885 11.5943 9.57495L11.5737 9.47427C11.5087 9.21713 11.3443 8.99633 11.1165 8.86045C10.8888 8.72457 10.6163 8.68472 10.3592 8.74969ZM7.52539 7.05901C7.28438 7.11992 7.07469 7.26841 6.93722 7.47553C6.79975 7.68264 6.74435 7.93354 6.78182 8.17929L6.80245 8.27997C6.86548 8.52893 7.02187 8.74409 7.23922 8.88088C7.45657 9.01766 7.71822 9.06559 7.96994 9.01472C8.22166 8.96385 8.44417 8.81808 8.59135 8.60763C8.73852 8.39718 8.79909 8.13817 8.76051 7.88427L8.73988 7.78359C8.67491 7.52645 8.51046 7.30566 8.2827 7.16977C8.05494 7.03389 7.78253 6.99405 7.52539 7.05901ZM4.69158 5.36834C4.45056 5.42924 4.24088 5.57773 4.10341 5.78485C3.96593 5.99197 3.91053 6.24286 3.94801 6.48861L3.967 6.58283L3.99667 6.68122C4.08051 6.91516 4.24846 7.10951 4.46777 7.22637C4.68709 7.34324 4.94206 7.37426 5.183 7.31339C5.42394 7.25251 5.63358 7.10411 5.77107 6.89709C5.90855 6.69007 5.96403 6.43928 5.92669 6.19359L5.9077 6.09938L5.87803 6.00098C5.79428 5.76692 5.62635 5.57245 5.407 5.45549C5.18765 5.33852 4.93259 5.30745 4.69158 5.36834Z" fill="#737373"/>
</g>
<defs>
<clipPath id="clip0_2814_7">
<rect width="16" height="16" fill="white"/>
</clipPath>
</defs>
</svg>
